# xmcd
# 
# Track frame offsets:
#     150
#     12311
#     25438
#     41448
#     54661
#     69261
#     81314
#     92426
#     106232
#     116554
#     126845
#     138463
#     148980
#     159440
#     174699
#     189916
#     203458
#     215116
#     226592
#     239926
#     250874
#     261872
#     272549
#     281794
#     292843
# 
# Disc length: 4108
# 
# Revision: 1
# Processed by: cddbd v1.5.2PL0 Copyright (c) Steve Scherf et al.
# Submitted via: fre:ac v1.0.31
# 
DISCID=6e100a19
DTITLE=Various Artist - Magic Moments: The Definitive Burt Bacharach Collection [Disc 2]
DYEAR=2008
DGENRE=Easy Listening
TTITLE0=Perry Como - Magic Moments
TTITLE1=Dionne Warwick - Do You Know The Way To San Jose
TTITLE2=Aretha Franklin - I Say a Little Prayer
TTITLE3=Dusty Springfield - Wishin'and'hoping
TTITLE4=The Walker Brothers - Make its easy on yourself
TTITLE5=Sandie Shaw - (There's) Always something there to remind me
TTITLE6=Burt Bacharach - Don't go breaking my heart
TTITLE7=Dionne Warwick - I'll never fall in love again
TTITLE8=The Drifters - Please stay
TTITLE9=Gene McDaniels - Tower of strength
TTITLE10=Marty Robbins - The story of my life
TTITLE11=Tom Jones - What's new pussycat?
TTITLE12=Vi Valesco - That's not the answer
TTITLE13=Dionne Warwick - Don't make me over
TTITLE14=Chuck Jackson - Any day now (My wild Beautiful bird)
TTITLE15=Gene Pitney - (The man who shot) Liberty valace
TTITLE16=The Drifters - Mexican divorce
TTITLE17=Dean Barlow - Third window from the right
TTITLE18=Adam Wade - Rain from the skies
TTITLE19=Della Reese - How about?
TTITLE20=Helen Shapiro - Keep away from other girls
TTITLE21=Trini Lopez - Made in Paris
TTITLE22=The Merseybeats - It's love that really counts (in the long run)
TTITLE23=Manfred Mann - My little read book
TTITLE24=Burt Bacharach - Pacific coast highway
EXTD=
EXTT0=
EXTT1=
EXTT2=
EXTT3=
EXTT4=
EXTT5=
EXTT6=
EXTT7=
EXTT8=
EXTT9=
EXTT10=
EXTT11=
EXTT12=
EXTT13=
EXTT14=
EXTT15=
EXTT16=
EXTT17=
EXTT18=
EXTT19=
EXTT20=
EXTT21=
EXTT22=
EXTT23=
EXTT24=
PLAYORDER=
